<svg width="25" height="25" viewBox="0 0 25 25" fill="none" xmlns="http://www.w3.org/2000/svg">
    <path opacity="0.4" fill-rule="evenodd" clip-rule="evenodd" d="M12.3938 0C9.21744 0.000784322 6.17148 1.26312 3.92576 3.5094C1.68004 5.75567 0.418457 8.80194 0.418457 11.9783C0.418457 15.1546 1.68004 18.2008 3.92576 20.4471C6.17148 22.6934 9.21744 23.9557 12.3938 23.9565V0Z" fill="#02DA42"/>
    <path fill-rule="evenodd" clip-rule="evenodd" d="M24.4774 23.9565H12.3937C5.77649 23.9277 0.41548 18.6106 0.41548 11.9782L0.413574 11.9778H12.3938L12.3937 11.9782L12.4138 11.9778H13.0197C16.0487 12.0556 18.9309 13.2994 21.0654 15.4499C23.1999 17.6004 24.4222 20.4917 24.4774 23.5212V23.9565Z" fill="#02DA42"/>
    <path opacity="0.51" fill-rule="evenodd" clip-rule="evenodd" d="M12.394 11.9778L0.415681 11.9782C0.409998 14.4534 1.17641 16.8688 2.60818 18.8878C2.61857 18.9025 2.62905 18.9172 2.63943 18.9318C3.75028 20.483 5.2142 21.7476 6.91031 22.6213C8.60641 23.495 10.486 23.9526 12.3939 23.9565L12.394 11.9778Z" fill="#C0EACA"/>
    <circle cx="19.3791" cy="5.98899" r="4.99094" fill="#02DA42"/>
</svg>