<svg width="120" height="23" viewBox="0 0 120 23" fill="none" xmlns="http://www.w3.org/2000/svg">
<path fill-rule="evenodd" clip-rule="evenodd" d="M44.1625 3.12195H40.6608V8.23438C39.7271 7.44067 38.5365 6.95044 37.2059 6.95044C33.4007 6.95044 30.2959 9.93852 30.2959 13.6269C30.2959 17.3154 33.4007 20.3035 37.2292 20.3035C38.7232 20.3035 40.0539 19.5798 40.8943 18.4359V19.9299H44.1625V3.12195ZM37.2992 17.1286C35.3616 17.1286 33.7976 15.5645 33.7976 13.6269C33.7976 11.6894 35.3616 10.1253 37.2992 10.1253C39.2368 10.1253 40.8009 11.6894 40.8009 13.6269C40.8009 15.5645 39.2368 17.1286 37.2992 17.1286ZM46.0315 19.93V3.12195H49.5332V8.07097C50.3502 7.37064 51.4007 6.95044 52.5679 6.95044C56.4431 6.95044 59.1044 9.93853 59.1044 13.627V19.93H55.6027V13.627C55.6027 11.6894 54.5055 10.1253 52.5679 10.1253C50.6304 10.1253 49.5332 11.6894 49.5332 13.6036V19.93H46.0315ZM74.0279 13.627C74.0279 9.93853 70.9231 6.95044 67.0946 6.95044C63.2661 6.95044 60.1613 9.93853 60.1613 13.627C60.1613 17.3154 63.2661 20.3035 67.0946 20.3035C68.612 20.3035 69.9659 19.5331 70.7596 18.3659V19.93H74.0279V13.627ZM70.6663 13.627C70.6663 15.5645 69.1022 17.1286 67.1646 17.1286C65.227 17.1286 63.6629 15.5645 63.6629 13.627C63.6629 11.6894 65.227 10.1253 67.1646 10.1253C69.1022 10.1253 70.6663 11.6894 70.6663 13.627ZM75.6662 13.627C75.6662 9.93853 78.3274 6.95044 82.2026 6.95044H82.6695V10.1253C80.7319 10.1253 79.1678 11.6894 79.1678 13.627V19.93H75.6662V13.627ZM89.6865 6.95044C85.8113 6.95044 83.3835 9.93853 83.3835 13.627V19.93H86.8852V13.627C86.8852 11.6894 87.7489 10.1253 89.6865 10.1253C91.6241 10.1253 92.4879 11.6894 92.4879 13.627V19.93H95.9895V13.627C95.9895 11.6894 96.8533 10.1253 98.7908 10.1253C100.728 10.1253 101.592 11.6894 101.592 13.627V19.93H105.094V13.627C105.094 9.93853 102.666 6.95044 98.7908 6.95044C96.97 6.95044 95.3359 7.7675 94.2387 9.07479C93.1415 7.7675 91.5074 6.95044 89.6865 6.95044ZM120 13.627C120 9.93853 116.895 6.95044 113.067 6.95044C109.238 6.95044 106.133 9.93853 106.133 13.627C106.133 17.3154 109.238 20.3035 113.067 20.3035C114.584 20.3035 115.938 19.5331 116.732 18.3659V19.93H120V13.627ZM116.638 13.627C116.638 15.5645 115.074 17.1286 113.137 17.1286C111.199 17.1286 109.635 15.5645 109.635 13.627C109.635 11.6894 111.199 10.1253 113.137 10.1253C115.074 10.1253 116.638 11.6894 116.638 13.627Z" fill="#181D27"/>
<path d="M22.9121 22.9561C22.9121 21.4517 22.6158 19.962 22.0401 18.572C21.4644 17.1821 20.6205 15.9192 19.5567 14.8554C18.4929 13.7916 17.23 12.9478 15.8401 12.3721C14.4502 11.7963 12.9605 11.5 11.4561 11.5V22.9561H22.9121Z" fill="#0355D2"/>
<path d="M-1.33514e-05 11.5C-1.33514e-05 13.0044 0.296306 14.4941 0.872027 15.884C1.44775 17.274 2.2916 18.5369 3.35539 19.6007C4.41919 20.6645 5.68209 21.5083 7.07201 22.084C8.46192 22.6597 9.95162 22.9561 11.4561 22.9561V11.5H-1.33514e-05Z" fill="#C5DCFF"/>
<path d="M-1.33514e-05 11.5C-1.33514e-05 9.99557 0.296306 8.50587 0.872027 7.11595C1.44775 5.72604 2.2916 4.46313 3.35539 3.39934C4.41919 2.33554 5.68209 1.49169 7.07201 0.915973C8.46192 0.340251 9.95162 0.043932 11.4561 0.043932V11.5H-1.33514e-05Z" fill="#418CFE"/>
<circle cx="17.8206" cy="6.40842" r="5.09159" fill="#C5DCFF"/>
</svg>
