<svg width="101" height="24" viewBox="0 0 101 24" fill="none" xmlns="http://www.w3.org/2000/svg">
    <path d="M45.896 15.6035C45.896 19.3035 42.946 21.7285 38.271 21.7285C33.596 21.7285 30.596 19.2535 30.271 15.2785H35.046C35.096 16.9785 36.221 18.0535 38.171 18.0535C39.796 18.0535 40.871 17.4285 40.871 16.3035C40.871 15.5285 40.096 14.9535 39.046 14.7535L35.771 14.1285C32.896 13.5785 30.996 11.9035 30.996 9.00352C30.996 5.65352 33.946 3.30351 37.971 3.30351C42.246 3.30351 45.321 5.75352 45.596 9.62851H40.821C40.696 8.00351 39.596 6.95351 38.021 6.95351C36.621 6.95351 35.771 7.70352 35.771 8.67852C35.771 9.47852 36.571 9.95351 37.521 10.1285L40.996 10.8035C44.196 11.4285 45.896 13.0035 45.896 15.6035ZM54.1429 21.7285C50.1679 21.7285 47.1179 18.6035 47.1179 14.7535C47.1179 10.9035 50.1679 7.77851 54.1429 7.77851C58.1179 7.77851 61.1679 10.9035 61.1679 14.7535C61.1679 18.6035 58.1179 21.7285 54.1429 21.7285ZM54.1429 17.9035C55.4679 17.9035 56.7179 16.8535 56.7179 14.7535C56.7179 12.6535 55.4679 11.6285 54.1429 11.6285C52.8179 11.6285 51.5679 12.6535 51.5679 14.7535C51.5679 16.8535 52.8179 17.9035 54.1429 17.9035ZM71.9099 17.2785V21.0035C70.9599 21.5285 70.0599 21.7285 68.8599 21.7285C65.8349 21.7285 64.0599 19.9285 64.0599 16.8535V11.7535H61.5599V8.02851H64.0599V4.07851H68.3349V8.02851H72.0099V11.7535H68.3349V15.8535C68.3349 17.1535 68.8849 17.7535 70.0599 17.7535C70.7599 17.7535 71.4349 17.5785 71.9099 17.2785ZM79.8509 21.7285C75.8759 21.7285 72.8259 18.6035 72.8259 14.7535C72.8259 10.9035 75.8759 7.77851 79.8509 7.77851C83.8259 7.77851 86.8759 10.9035 86.8759 14.7535C86.8759 18.6035 83.8259 21.7285 79.8509 21.7285ZM79.8509 17.9035C81.1759 17.9035 82.4259 16.8535 82.4259 14.7535C82.4259 12.6535 81.1759 11.6285 79.8509 11.6285C78.5259 11.6285 77.2759 12.6535 77.2759 14.7535C77.2759 16.8535 78.5259 17.9035 79.8509 17.9035Z" fill="white"/>
    <path opacity="0.4" fill-rule="evenodd" clip-rule="evenodd" d="M12.3938 0C9.21744 0.000784322 6.17148 1.26312 3.92576 3.5094C1.68004 5.75567 0.418457 8.80194 0.418457 11.9783C0.418457 15.1546 1.68004 18.2008 3.92576 20.4471C6.17148 22.6934 9.21744 23.9557 12.3938 23.9565V0Z" fill="#02DA42"/>
    <path fill-rule="evenodd" clip-rule="evenodd" d="M24.4774 23.9565H12.3937C5.77649 23.9277 0.41548 18.6106 0.41548 11.9782L0.413574 11.9778H12.3938L12.3937 11.9782L12.4138 11.9778H13.0197C16.0487 12.0556 18.9309 13.2994 21.0654 15.4499C23.1999 17.6004 24.4222 20.4917 24.4774 23.5212V23.9565Z" fill="#02DA42"/>
    <path opacity="0.51" fill-rule="evenodd" clip-rule="evenodd" d="M12.394 11.9778L0.415681 11.9782C0.409998 14.4534 1.17641 16.8688 2.60818 18.8878C2.61857 18.9025 2.62905 18.9172 2.63943 18.9318C3.75028 20.483 5.2142 21.7476 6.91031 22.6213C8.60641 23.495 10.486 23.9526 12.3939 23.9565L12.394 11.9778Z" fill="#C0EACA"/>
    <circle cx="19.3791" cy="5.98899" r="4.99094" fill="#02DA42"/>
</svg>
